# xmcd CD database file
#
# Track frame offsets:
#	150
#	2098
#	14776
#	29778
#	45924
#	59419
#	73729
#	86182
#	102201
#	119290
#	131673
#	149553
#	171263
#	187347
#	203358
#	218815
#
# Disc length: 3359 seconds
#
# Revision: 0
# Processed by: cddbd v1.5.2PL0 Copyright (c) Steve Scherf et al.
# Submitted via: CDex 1.40Release
#
DISCID=f40d1d10
DTITLE=Boss Hoss - Rodeo Radio
DYEAR=1900
DGENRE=Country
TTITLE0=Intro
TTITLE1=Rodeo Radio
TTITLE2=Ring, Ring, Ring
TTITLE3=My Favourite Game
TTITLE4=I Say A Little Prayer
TTITLE5=I'm On A High
TTITLE6=Hell Yeah
TTITLE7=Hot Stuff
TTITLE8=Rodeo Queen
TTITLE9=It's Not Unusual
TTITLE10=Shake A Leg
TTITLE11=Mary Me
TTITLE12=Jesus Built My Hotrod
TTITLE13=Upside Down
TTITLE14=Ca Plane Pour Moi
TTITLE15=You'll Never Walk Alone
EXTD=ID3G: 2
EXTT0=
EXTT1=
EXTT2=
EXTT3=
EXTT4=
EXTT5=
EXTT6=
EXTT7=
EXTT8=
EXTT9=
EXTT10=
EXTT11=
EXTT12=
EXTT13=
EXTT14=
EXTT15=
PLAYORDER=
